<?xml version="1.0" standalone="no"?>
<!DOCTYPE svg PUBLIC "-//W3C//DTD SVG 20010904//EN"
 "http://www.w3.org/TR/2001/REC-SVG-20010904/DTD/svg10.dtd">
<svg version="1.0" xmlns="http://www.w3.org/2000/svg"
 width="300.000000pt" height="300.000000pt" viewBox="0 0 300.000000 300.000000"
 preserveAspectRatio="xMidYMid meet">
<metadata>
Created by potrace 1.11, written by Peter Selinger 2001-2013
</metadata>
<g transform="translate(0.000000,300.000000) scale(0.100000,-0.100000)"
fill="#000000" stroke="none">
<path d="M1444 2955 c-23 -7 -57 -24 -75 -37 -57 -43 -102 -52 -185 -36 -48 9
-72 8 -107 -2 -42 -11 -107 -61 -107 -81 0 -5 -18 -29 -41 -54 -39 -42 -74
-60 -136 -71 -42 -7 -104 -54 -125 -95 -10 -20 -21 -62 -24 -95 -9 -84 -26
-119 -90 -178 -76 -69 -98 -114 -91 -185 3 -31 15 -78 27 -106 33 -76 33 -118
-1 -213 -16 -46 -29 -100 -29 -120 1 -57 32 -113 93 -167 64 -55 82 -92 91
-183 4 -44 15 -75 33 -103 27 -41 78 -79 107 -79 23 0 26 9 -39 -135 -15 -33
-33 -73 -40 -90 -8 -16 -26 -57 -40 -90 -15 -33 -42 -94 -60 -135 -18 -41 -42
-95 -53 -120 -60 -131 -109 -245 -106 -249 1 -2 105 36 230 83 143 55 230 83
234 76 3 -6 44 -109 90 -229 46 -121 87 -218 90 -216 3 2 86 185 185 408 l180
405 44 -1 44 0 39 -86 c22 -47 46 -99 53 -116 7 -16 24 -55 38 -85 39 -85 157
-351 174 -390 53 -123 66 -145 74 -125 4 11 43 114 88 229 44 114 82 210 84
213 3 2 105 -34 228 -82 122 -47 226 -84 230 -83 4 2 -73 183 -171 403 l-179
400 36 17 c76 37 107 86 117 181 8 77 33 122 97 176 95 81 110 162 54 299 -32
80 -32 120 5 220 50 138 42 183 -50 272 -80 78 -98 110 -105 184 -3 31 -12 70
-20 88 -22 55 -85 103 -146 112 -73 11 -104 33 -171 125 -51 68 -88 84 -178
76 -136 -11 -161 -6 -255 54 -40 25 -91 31 -141 16z"/>
</g>
</svg>
